<svg width="90" height="90" viewBox="0 0 90 90" fill="none" xmlns="http://www.w3.org/2000/svg">
<g filter="url(#filter0_d_44_48)">
<rect x="9" y="5" width="72" height="72" rx="20" fill="white"/>
</g>
<path d="M65.1349 41C65.1349 31.892 56.2696 24.5 45.3463 24.5C34.423 24.5 25.5577 31.892 25.5577 41C25.5577 48.986 32.365 55.6355 41.3886 57.17V45.95H37.4309V41H41.3886V36.875C41.3886 33.6905 44.4954 31.1 48.3146 31.1H53.2617V36.05H49.304C48.2156 36.05 47.3252 36.7925 47.3252 37.7V41H53.2617V45.95H47.3252V57.4175C57.3184 56.5925 65.1349 49.5635 65.1349 41Z" fill="#0075FF"/>
<defs>
<filter id="filter0_d_44_48" x="0" y="0" width="90" height="90" filterUnits="userSpaceOnUse" color-interpolation-filters="sRGB">
<feFlood flood-opacity="0" result="BackgroundImageFix"/>
<feColorMatrix in="SourceAlpha" type="matrix" values="0 0 0 0 0 0 0 0 0 0 0 0 0 0 0 0 0 0 127 0" result="hardAlpha"/>
<feOffset dy="4"/>
<feGaussianBlur stdDeviation="4.5"/>
<feComposite in2="hardAlpha" operator="out"/>
<feColorMatrix type="matrix" values="0 0 0 0 0 0 0 0 0 0 0 0 0 0 0 0 0 0 0.25 0"/>
<feBlend mode="normal" in2="BackgroundImageFix" result="effect1_dropShadow_44_48"/>
<feBlend mode="normal" in="SourceGraphic" in2="effect1_dropShadow_44_48" result="shape"/>
</filter>
</defs>
</svg>
