<svg width="36" height="36" viewBox="0 0 36 36" fill="none" xmlns="http://www.w3.org/2000/svg">
<path d="M35.6499 14.4747H34.2V14.4H18V21.6H28.1727C26.6886 25.7913 22.7007 28.8 18 28.8C12.0357 28.8 7.2 23.9643 7.2 18C7.2 12.0357 12.0357 7.2 18 7.2C20.7531 7.2 23.2578 8.2386 25.1649 9.9351L30.2562 4.8438C27.0414 1.8477 22.7412 0 18 0C8.0595 0 0 8.0595 0 18C0 27.9405 8.0595 36 18 36C27.9405 36 36 27.9405 36 18C36 16.7931 35.8758 15.615 35.6499 14.4747Z" fill="#FFC107"/>
<path d="M2.07422 9.6219L7.98812 13.959C9.58832 9.9972 13.4637 7.2 17.9988 7.2C20.7519 7.2 23.2566 8.2386 25.1637 9.9351L30.255 4.8438C27.0402 1.8477 22.74 0 17.9988 0C11.085 0 5.08922 3.9033 2.07422 9.6219Z" fill="#FF3D00"/>
<path d="M17.9994 36C22.6488 36 26.8734 34.2207 30.0675 31.3272L24.4965 26.613C22.6893 27.9819 20.4429 28.8 17.9994 28.8C13.3176 28.8 9.34225 25.8147 7.84465 21.6486L1.97485 26.1711C4.95385 32.0004 11.0037 36 17.9994 36Z" fill="#000CC9"/>
<path d="M35.6499 14.4745H34.2V14.3998H18V21.5998H28.1727C27.4599 23.6131 26.1648 25.3492 24.4944 26.6137C24.4953 26.6128 24.4962 26.6128 24.4971 26.6119L30.0681 31.3261C29.6739 31.6843 36 26.9998 36 17.9998C36 16.7929 35.8758 15.6148 35.6499 14.4745Z" fill="#1976D2"/>
</svg>
