<svg width="36" height="36" viewBox="0 0 36 36" fill="none" xmlns="http://www.w3.org/2000/svg">
<rect width="36" height="36" fill="white"/>
<path d="M34.5 4.5C33.0636 5.51322 31.4732 6.28816 29.79 6.795C28.8866 5.75627 27.686 5.02004 26.3506 4.68589C25.0151 4.35174 23.6092 4.43579 22.3231 4.92668C21.037 5.41757 19.9327 6.2916 19.1595 7.43058C18.3863 8.56955 17.9815 9.9185 18 11.295V12.795C15.364 12.8634 12.7519 12.2787 10.3965 11.0932C8.04112 9.90762 6.01548 8.15795 4.5 6C4.5 6 -1.5 19.5 12 25.5C8.91079 27.5969 5.23074 28.6484 1.5 28.5C15 36 31.5 28.5 31.5 11.25C31.4986 10.8322 31.4584 10.4154 31.38 10.005C32.9109 8.49524 33.9912 6.58907 34.5 4.5Z" fill="#0075FF" stroke="#0075FF" stroke-width="2" stroke-linecap="round" stroke-linejoin="round"/>
</svg>
